<?xml version="1.0" encoding="UTF-8" standalone="no"?>
<svg xmlns="http://www.w3.org/2000/svg" width="24px" height="24px" viewBox="0 0 100 100" version="1.1" id="button-save">
<g>
<rect style="fill:#000000;fill-opacity:0.5" width="100" height="100" x="0" y="0" ry="25" />
<path style="fill:#ffffff;fill-opacity:1" d="M 26.66,20 C 23,20 20,23 20,26.66 V 73.32 C 20,77 23,80 26.66,80 H 73.33 C 77,80 80,76 80,73.33 V 30 L 70,20 Z m 10,3.33 H 63.32 V 39.99 H 36.66 Z m 16.66,3.33 v 10 h 6.66 v -10 z m -20,23.33 h 33.34 c 2,0.01 3.34,1.34 3.34,3.34 v 16.66 c 0,2 -1.33,3.33 -3.33,3.33 H 33.33 C 31.33,73.33 30,72 30,70 V 53.34 c 0,-2 1.33,-3.33 3.33,-3.33 z" />
</g>
</svg>
