<?xml version="1.0" encoding="UTF-8" standalone="no"?>
<svg xmlns="http://www.w3.org/2000/svg" width="24px" height="24px" viewBox="0 0 100 100" version="1.1" id="button-meta">
<g>
<rect style="fill:#000000;fill-opacity:0.5" width="100" height="100" x="0" y="0" ry="25" />
<path style="fill:#ffffff;fill-opacity:1" d="m 46.6,22.8 -6.8,6.8 h -6.8 v -3.4 h -10.2 v 3.4 c -3.75,0 -6.8,3.1 -6.8,6.8 v 34.1 c 0,3.75 3.1,6.8 6.8,6.8 h 54.6 c 3.75,0 6.8,-3.1 6.8,-6.8 v -34.1 c 0,-3.75 -3.1,-6.8 -6.8,-6.8 h -3.4 l -6.8,-6.8 z m -18.75,8.5 c 1.9,0 3.4,1.5 3.4,3.4 0,1.9 -1.5,3.4 -3.4,3.4 -1.9,0 -3.4,-1.5 -3.4,-3.4 0,-1.9 1.5,-3.4 3.4,-3.4 z m 29,5.1 c 9.4,0 17,7.6 17,17 0,9.4 -7.6,17 -17,17 -9.4,0 -17,-7.6 -17,-17 0,-9.4 7.6,-17 17,-17 z m 0,6.8 c -5.6,0 -10.2,4.6 -10.2,10.2 0,5.6 4.6,10.2 10.2,10.2 5.6,0 10.2,-4.6 10.2,-10.2 0,-5.6 -4.6,-10.2 -10.2,-10.2 z" />
</g>
</svg>
